<svg xmlns="http://www.w3.org/2000/svg" viewBox="0 0 221 166"><g id="Capa_2" data-name="Capa 2"><path d="M170.17,24.33A19.89,19.89,0,0,0,152,12.75H64.62A20,20,0,0,0,46.07,25.19L30.46,70h-.07v77.1a14.51,14.51,0,0,0,29,0V138.7H161.54v8.41a14.51,14.51,0,0,0,14.51,14.51h0a14.51,14.51,0,0,0,14.51-14.51V138.7h0v-69ZM66.3,114.19a11.83,11.83,0,1,1,11.83-11.82A11.83,11.83,0,0,1,66.3,114.19Zm92.16,0a11.83,11.83,0,1,1,11.83-11.82A11.83,11.83,0,0,1,158.46,114.19ZM46.59,70,60.07,30.39a4.93,4.93,0,0,1,4.55-2.89H152a4.92,4.92,0,0,1,4.52,2.81L174.35,70Z"/></g></svg>