<svg xmlns="http://www.w3.org/2000/svg" viewBox="0 0 221 166"><g id="Capa_2" data-name="Capa 2"><g id="iTzjcD.tif"><path d="M119.65,128.09a4.12,4.12,0,0,1-2.62-4.48c.11-1.91,0-3.83,0-5.74a3.47,3.47,0,0,1,3.46-3.65,3.53,3.53,0,0,1,3.48,3.66c0,1.07-.48,2.53.22,3.09s2.07.18,3.15.18c2.59,0,5.21.2,7.73-.66A13.85,13.85,0,0,0,144,111.7c.28-.77.15-1-.69-1-.54.05-1.08,0-1.63,0a3.51,3.51,0,0,1-3.84-3.83q0-10.62,0-21.24c0-4.22,0-8.45,0-12.68,0-2.5,1.38-3.86,3.9-3.87H142c2.71,0,2.71,0,2.12-2.62a27.74,27.74,0,0,0-26.79-21.63,71.6,71.6,0,0,0-11.89.38A27.86,27.86,0,0,0,82.72,68.31c-.11.74.07.87.72.83s1.45,0,2.17,0a3.47,3.47,0,0,1,3.68,3.66c0,3.25,0,6.5,0,9.75v24.17c0,2.72-1.33,4.07-4.07,4-3.61-.06-7.23.28-10.82-.2A15.09,15.09,0,0,1,61.57,96.18q-.12-6.24,0-12.46A15.1,15.1,0,0,1,74.66,69.37c.71-.09.94-.3,1-1,2.09-14.68,12.07-25.88,26.18-29.43a30.7,30.7,0,0,1,7.51-1c4.36,0,8.73-.23,13.09.41,14.56,2.11,26.83,14.43,28.83,29,.24,1.77.24,1.77,1.9,2.1a15.12,15.12,0,0,1,12.22,12.61,2.13,2.13,0,0,0,.18.5V97.31a1.92,1.92,0,0,0-.17.39c-1.29,7.13-6.13,11.85-13.27,12.85-.65.09-.77.4-.91,1-1.93,8.08-6.88,13.37-14.83,15.81-1.09.34-2.23.52-3.34.77Zm-37.29-38c0-4.37,0-8.73,0-13.1,0-.71-.2-.92-.91-.9-1.62,0-3.24,0-4.87,0a8.19,8.19,0,0,0-8.1,8.07q-.07,5.79,0,11.58a8.13,8.13,0,0,0,6.71,7.91c2,.38,4.11.06,6.16.19.81,0,1-.2,1-1C82.34,98.56,82.36,94.31,82.36,90.05Zm62.44-.23c0,4.36,0,8.73,0,13.09,0,.69.16.94.89.92,1.69-.06,3.39,0,5.09,0A8.15,8.15,0,0,0,158.65,96c.09-4,.08-8,0-12a8.09,8.09,0,0,0-6.58-7.68c-2.07-.4-4.17-.08-6.26-.21-.79,0-1,.16-1,1C144.83,81.31,144.8,85.56,144.8,89.82Z" fill="#026666"/></g></g></svg>