<?xml version="1.0" encoding="utf-8"?>
<!-- Generator: Adobe Illustrator 25.2.1, SVG Export Plug-In . SVG Version: 6.00 Build 0)  -->
<svg version="1.1" id="Capa_1" xmlns="http://www.w3.org/2000/svg" xmlns:xlink="http://www.w3.org/1999/xlink" x="0px" y="0px"
	 viewBox="0 0 600 600" style="enable-background:new 0 0 600 600;" xml:space="preserve">
<style type="text/css">
	.st0{fill:#CBD400;}
	.st1{fill:#026666;}
</style>
<g>
	<circle class="st0" cx="300" cy="300" r="208"/>
	<g id="JH8ZSO.tif">
		<g>
			<g>
				<g>
					<path class="st1" d="M305.9,435.7c-7.5-1.6-12.9-6.4-18.1-11.7c-10.8-11.1-21.9-21.9-32.7-33c-1.5-1.5-2.3-1.6-3.7,0
						c-4.3,4.7-8.9,8.9-15.4,10.2c-7.9,1.6-15.1,0.1-21-5.4c-8.4-8-16.6-16.2-24.6-24.6c-8.4-8.9-8.3-23,0.2-31.9
						c9.8-10.2,19.9-20.1,29.9-30.1c10.6-10.6,21.4-21.1,30.1-33.5c13.5-19.1,22.5-40.1,27.4-63c0.3-1.5-0.3-2.5-0.9-3.7
						c-8.7-16.3,3.4-35.9,21.8-35.2c6.3,0.2,11.7,2.6,16.1,7c29.9,30,59.9,59.9,89.8,90c7.1,7.1,9,15.8,5.5,25.2
						c-3.4,9.3-10.5,14.4-20.3,15.5c-4.9,0.6-9.5-0.6-13.7-3c-1.2-0.7-2.1-0.8-3.5-0.6c-21.4,4.5-41.2,12.9-59.4,25.1
						c-1.9,1.3-2.1,2-0.4,3.6c6.4,5.7,9.6,12.8,8.7,21.5c-0.6,6.1-3.5,11-7.8,15.3c-1.5,1.5-4.2,2.9-4,4.6c0.1,1.6,2.6,3.1,4.1,4.6
						c3.7,3.8,7.5,7.5,11.2,11.3c7,6.9,9.7,15.2,6.9,24.7c-2.8,9.3-9.2,14.8-18.8,16.7c-0.2,0-0.4,0.2-0.7,0.4
						C310.5,435.7,308.2,435.7,305.9,435.7z M291.8,224.9c-0.4,0.8-0.6,1.1-0.7,1.5c-7.1,26.4-19.4,50-37,70.8
						c-1.2,1.4-0.8,2.1,0.3,3.2c10.3,10.2,20.5,20.5,30.7,30.8c1.6,1.6,2.5,1.9,4.4,0.3c20.2-17.1,43.1-29.1,68.5-36.2
						c3-0.8,3-0.8,0.8-3c-18.7-18.8-37.5-37.6-56.2-56.3C299.1,232.4,295.6,228.8,291.8,224.9z M230.8,385.9c2.4,0.1,4.3-1,6-2.7
						c12.5-12.5,25-25.1,37.5-37.5c1.1-1.1,1.2-1.7,0-2.9c-10.4-10.3-20.7-20.6-30.9-31c-1.1-1.2-1.7-1.2-2.9,0
						c-12.5,12.6-25.1,25.2-37.6,37.8c-3.6,3.6-3.6,8.2,0,11.8c7.3,7.4,14.6,14.7,21.9,22C226.5,385,228.4,385.9,230.8,385.9z
						 M396.1,288.7c0.1-3.7-1.4-5.7-3.3-7.6c-29.3-29.3-58.6-58.7-87.9-88.1c-0.6-0.6-1.2-1.3-1.9-1.8c-2.6-1.8-5.4-2.2-8.2-0.7
						c-2.8,1.4-4.2,3.7-4.4,6.8c-0.2,2.9,1.3,5,3.3,7c29.3,29.3,58.6,58.7,87.9,88.1c0.6,0.6,1.1,1.2,1.7,1.6
						c2.6,1.9,5.5,2.3,8.5,0.9C394.6,293.5,395.9,291,396.1,288.7z M317.4,411.9c-0.1-2.2-0.8-4.1-2.3-5.6
						c-12.7-12.8-25.5-25.5-38.2-38.3c-1-1-1.6-0.9-2.5,0c-2.7,2.8-5.4,5.6-8.3,8.2c-1.7,1.5-1.2,2.3,0.1,3.6
						c12.2,12.1,24.4,24.4,36.5,36.6c0.6,0.6,1.1,1.2,1.7,1.6c2.7,1.9,5.5,2.3,8.5,0.8C315.9,417.4,317.2,414.9,317.4,411.9z
						 M306.1,355c0-0.1,0-0.8-0.2-1.4c-1-3.9-4.4-5.8-6.9-8.5c-0.7-0.7-1.3,0.2-1.7,0.6c-3,2.8-6,5.7-9.1,8.5c-1.1,1-1,1.6,0,2.5
						c1.9,1.7,3.6,3.6,5.4,5.4c1.5,1.5,3.1,4,4.6,4c1.6,0,3-2.6,4.6-4.1C304.8,360.3,306.2,358.2,306.1,355z"/>
					<path class="st0" d="M313.1,437l-7.5,0c-8.1-1.7-13.7-6.9-18.7-12.1c-6.3-6.4-12.7-12.9-19-19.1c-4.6-4.6-9.2-9.2-13.7-13.8
						c-0.7-0.7-0.9-0.7-1-0.8c0,0-0.2,0-0.8,0.7c-4.9,5.4-9.6,9.3-16.1,10.6c-8.8,1.8-16.2-0.2-22.1-5.7
						c-8.6-8.2-16.9-16.5-24.6-24.6c-8.9-9.4-8.8-24.2,0.2-33.6c7.2-7.5,14.7-15,21.9-22.2c2.7-2.7,5.4-5.3,8-8l2.4-2.4
						c9.6-9.6,19.6-19.6,27.6-31c13.2-18.8,22.4-39.9,27.2-62.6c0.2-0.9-0.1-1.6-0.7-2.7c-4.4-8.3-4.1-17.7,0.8-25.5
						c4.8-7.7,13-12.1,22.1-11.8c6.6,0.2,12.3,2.7,17,7.4l16.9,16.9c24.3,24.3,48.6,48.7,72.8,73.1c7.4,7.5,9.5,16.7,5.8,26.6
						c-3.5,9.5-10.9,15.2-21.3,16.4c-4.9,0.6-9.8-0.5-14.5-3.2c-0.9-0.5-1.6-0.6-2.6-0.4c-21,4.4-40.8,12.8-58.9,24.9
						c-0.7,0.5-0.9,0.7-1,0.8c0.1,0,0.2,0.3,0.8,0.7c7,6.3,10,13.9,9.1,22.6c-0.6,6-3.3,11.2-8.2,16c-0.5,0.5-1,0.9-1.6,1.3
						c-0.8,0.7-2.1,1.7-2.1,2.2c0.1,0.6,1.3,1.7,2.2,2.4c0.6,0.5,1.1,0.9,1.6,1.4l0.2,0.2c3.7,3.7,7.3,7.4,11,11.1
						c7.7,7.6,10.1,16.3,7.2,26c-2.8,9.5-9.7,15.6-19.8,17.6L313.1,437z M306,434.4h6.4c0.2-0.2,0.5-0.3,0.8-0.4
						c9.2-1.8,15.2-7.1,17.8-15.8c2.6-8.7,0.4-16.6-6.5-23.4c-3.7-3.7-7.4-7.4-11.1-11.1l-0.2-0.2c-0.4-0.4-0.9-0.8-1.4-1.2
						c-1.5-1.2-3-2.5-3.1-4.2c-0.2-1.9,1.5-3.3,3.1-4.4c0.5-0.4,1-0.8,1.4-1.2c4.4-4.4,6.9-9.1,7.4-14.5c0.8-8-1.9-14.6-8.3-20.4
						c-0.9-0.8-1.7-1.7-1.6-2.9c0.1-1.2,1.2-2.1,2.1-2.7c18.4-12.3,38.5-20.8,59.8-25.3c1.6-0.3,2.9-0.1,4.4,0.7
						c4.2,2.4,8.6,3.4,13,2.9c9.6-1.1,16-6,19.2-14.7c3.2-8.9,1.4-17.1-5.2-23.9c-24.2-24.4-48.5-48.7-72.8-73.1l-16.9-16.9
						c-4.2-4.2-9.3-6.5-15.3-6.7c-8.1-0.3-15.5,3.7-19.8,10.6c-4.4,7-4.6,15.5-0.8,22.8c0.7,1.3,1.4,2.7,1,4.6
						c-4.9,23-14.2,44.4-27.6,63.5c-8.1,11.6-18.2,21.6-27.9,31.3l-2.4,2.4c-2.7,2.7-5.3,5.3-8,8c-7.2,7.2-14.7,14.6-21.9,22.1
						c-8.1,8.4-8.1,21.6-0.2,30.1c7.7,8.1,15.9,16.4,24.5,24.5c5.2,5,11.9,6.7,19.8,5.1c5.8-1.2,10.1-4.8,14.7-9.8
						c0.6-0.7,1.5-1.5,2.7-1.6c0,0,0,0,0.1,0c1.1,0,2,0.8,2.8,1.5c4.6,4.6,9.1,9.2,13.7,13.8c6.3,6.3,12.7,12.7,19,19.2
						C293.5,428,298.7,432.9,306,434.4z M309.4,421.1c-1.9,0-3.8-0.7-5.6-2c-0.6-0.4-1.1-0.9-1.6-1.4l-9.8-9.9c-9-9-18-18.1-27-27
						c-0.8-0.8-1.6-1.7-1.6-2.9c0-1.2,0.9-2.1,1.5-2.6c2.6-2.3,5-4.9,7.4-7.3l0.8-0.8c0.5-0.5,1.2-1.2,2.2-1.2c0,0,0,0,0,0
						c1,0,1.7,0.6,2.2,1.1c8.7,8.8,17.5,17.5,26.2,26.3l12,12c1.6,1.6,2.5,3.7,2.6,6.4l0,0.1l0,0.1c-0.3,3.8-2,6.5-5.1,8
						C312.2,420.7,310.8,421.1,309.4,421.1z M275.7,368.6c0,0-0.1,0.1-0.3,0.3l-0.8,0.8c-2.4,2.5-4.9,5.1-7.5,7.5
						c-0.6,0.5-0.7,0.8-0.7,0.8c0,0,0.1,0.3,0.8,1c9,9,18,18,27.1,27.1l9.8,9.9c0.4,0.4,0.8,0.8,1.2,1.1c2.4,1.7,4.7,1.9,7.1,0.7
						c2.2-1.1,3.4-3,3.7-5.8c-0.1-2-0.7-3.5-1.9-4.7l-12-12c-8.7-8.8-17.5-17.5-26.2-26.3C275.9,368.7,275.8,368.6,275.7,368.6z
						 M231,387.2c-0.1,0-0.3,0-0.4,0c-2.5,0-4.7-1-6.7-2.9l-6.4-6.4c-5.2-5.2-10.4-10.4-15.5-15.6c-4-4.1-4-9.6,0-13.6
						c5.7-5.7,11.4-11.4,17.1-17.2c6.9-6.9,13.7-13.7,20.5-20.6c0.6-0.6,1.4-1.3,2.4-1.3c0,0,0,0,0,0c1,0,1.7,0.6,2.4,1.3
						c10.8,10.9,20.9,21.1,30.9,31c0.6,0.6,1.2,1.3,1.2,2.3c0,1-0.6,1.7-1.3,2.4c-12.5,12.5-25,25-37.5,37.5
						C235.7,386.2,233.5,387.2,231,387.2z M230.8,384.6L230.8,384.6c1.9,0.1,3.5-0.7,5.1-2.3c12.5-12.5,25-25.1,37.5-37.5
						c0.3-0.3,0.5-0.5,0.5-0.6c0,0-0.2-0.2-0.5-0.5c-10-9.9-20.1-20-30.9-31c-0.3-0.3-0.5-0.4-0.6-0.5c0,0-0.2,0.2-0.5,0.5
						c-6.8,6.9-13.7,13.8-20.5,20.6c-5.7,5.7-11.4,11.4-17.1,17.2c-3.1,3.1-3.1,6.9,0,10c5.1,5.2,10.3,10.4,15.5,15.6l6.4,6.4
						C227.3,383.9,228.9,384.6,230.8,384.6L230.8,384.6z M298.2,367.5c-1.7,0-3-1.5-4.2-3c-0.4-0.5-0.8-1-1.2-1.4
						c-0.7-0.7-1.5-1.5-2.2-2.2c-1.1-1.1-2.1-2.1-3.2-3.2c-0.6-0.5-1.2-1.3-1.2-2.3c0-1,0.7-1.7,1.2-2.2c1.8-1.6,3.6-3.3,5.3-5
						c1.2-1.2,2.5-2.4,3.8-3.5l0.2-0.2c0.4-0.4,1-1.1,1.9-1.1c0.4,0,0.9,0.1,1.5,0.7c0.7,0.7,1.4,1.4,2.1,2c2.1,1.9,4.2,3.9,5.1,7
						c0.1,0.6,0.2,1.2,0.2,1.5l0,0.2c0.1,4.1-1.9,6.5-3.6,8.1c-0.5,0.4-0.9,1-1.3,1.5C301.2,366,299.9,367.4,298.2,367.5
						C298.3,367.5,298.2,367.5,298.2,367.5z M288.8,355.5c0.1,0,0.2,0.2,0.3,0.3c1.1,1,2.2,2.1,3.3,3.2c0.7,0.7,1.4,1.5,2.2,2.2
						c0.5,0.4,0.9,1,1.4,1.5c0.6,0.7,1.8,2.1,2.2,2.1c0,0,0,0,0,0c0.5,0,1.5-1.3,2.2-2c0.5-0.6,1-1.2,1.6-1.7
						c2.1-1.9,2.9-3.7,2.8-6.1l0-0.1c0-0.2,0-0.6-0.1-1c-0.6-2.4-2.4-4.1-4.3-5.8c-0.6-0.6-1.3-1.2-1.9-1.8
						c-0.1,0.1-0.2,0.2-0.3,0.3c-1.3,1.2-2.5,2.3-3.7,3.5c-1.8,1.7-3.5,3.3-5.4,5C288.9,355.3,288.8,355.4,288.8,355.5z
						 M287.4,333.8c-1.1,0-2.1-0.7-3.2-1.7c-10.5-10.7-21-21.1-30.7-30.8c-1.3-1.3-2.2-2.8-0.4-4.9c17.4-20.6,29.8-44.2,36.8-70.3
						c0.1-0.3,0.2-0.5,0.4-1l1.1-2.4l4.9,5c2.5,2.5,4.9,5,7.3,7.4c11.8,11.8,23.5,23.6,35.3,35.4l20.9,21c1.4,1.4,2.1,2.1,1.9,3.2
						c-0.3,1.1-1.3,1.4-3.2,1.9c-25.2,7-48.1,19.1-68,35.9C289.2,333.4,288.3,333.8,287.4,333.8z M292.3,227.2
						c-7.1,26.3-19.6,50.1-37.2,70.8c-0.4,0.5-0.4,0.7-0.4,0.7c0,0,0.1,0.2,0.6,0.8c9.7,9.7,20.2,20.1,30.7,30.8
						c1.2,1.2,1.3,1.3,2.6,0.2c20.2-17.1,43.4-29.3,69-36.4c0.3-0.1,0.6-0.2,0.8-0.2c-0.2-0.2-0.4-0.4-0.6-0.6l-20.9-21
						c-11.8-11.8-23.5-23.6-35.3-35.4c-2.4-2.4-4.8-4.9-7.3-7.4L292.3,227.2z M388.1,297.1c-1.9,0-3.8-0.7-5.7-2
						c-0.5-0.4-1-0.9-1.5-1.4l-0.4-0.4L359.3,272c-22.2-22.2-44.4-44.5-66.6-66.7c-1.8-1.8-3.8-4.3-3.6-7.9c0.2-3.6,1.9-6.3,5.1-7.9
						c3.2-1.6,6.5-1.3,9.6,0.8c0.7,0.5,1.2,1.1,1.8,1.6l0.3,0.3l25.6,25.6c20.8,20.8,41.5,41.6,62.3,62.4c2.2,2.2,3.7,4.5,3.6,8.5
						l0,0c-0.2,3.1-2.1,5.8-5.1,7.3C390.9,296.8,389.5,297.1,388.1,297.1z M298.2,191c-1,0-2,0.3-3,0.8c-2.3,1.2-3.5,3-3.6,5.7
						c-0.1,2.1,0.7,3.8,2.9,6c22.2,22.2,44.4,44.5,66.6,66.7l21.7,21.7c0.4,0.4,0.8,0.8,1.2,1.1c2.3,1.7,4.7,2,7.1,0.8
						c2.2-1.1,3.5-2.9,3.6-5.1c0-3.1-1-4.7-2.9-6.6c-20.8-20.8-41.6-41.6-62.3-62.4l-25.9-26c-0.5-0.5-0.9-1-1.4-1.3
						C300.9,191.5,299.6,191,298.2,191z"/>
				</g>
				<g>
					<path class="st1" d="M353.6,163.6c4.5,2,6.3,5.5,5.9,10.4c-0.3,4.3,0,8.7-0.1,13c0,5-3.3,8.5-7.9,8.5c-4.5,0-7.9-3.6-8-8.5
						c-0.1-4.4,0.1-8.9-0.1-13.3c-0.2-4.9,1.6-8.4,6.3-10.1C351.1,163.6,352.4,163.6,353.6,163.6z"/>
					<path class="st0" d="M351.6,196.8c-5.2,0-9.2-4.2-9.3-9.8c0-1.8,0-3.5,0-5.3c0-2.6,0.1-5.3-0.1-7.9c-0.2-5.7,2.2-9.5,7.2-11.4
						l0.4-0.1l4.2,0.1c4.9,2.1,7.1,6,6.7,11.6c-0.2,2.7-0.1,5.6-0.1,8.3c0,1.6,0,3.1,0,4.7C360.7,192.7,356.9,196.8,351.6,196.8
						C351.6,196.8,351.6,196.8,351.6,196.8z M350.1,164.9c-3.8,1.5-5.5,4.2-5.3,8.8c0.1,2.7,0.1,5.4,0.1,8.1c0,1.7,0,3.5,0,5.2
						c0.1,4.2,2.9,7.2,6.7,7.2c0,0,0,0,0,0c3.9,0,6.6-3,6.6-7.2c0-1.5,0-3.1,0-4.6c0-2.8-0.1-5.6,0.1-8.5c0.3-4.5-1.2-7.3-4.9-9
						H350.1z"/>
				</g>
				<g>
					<path class="st1" d="M407.2,187.6c0,2.3-0.9,4.3-2.5,5.9c-5.1,5.1-10.2,10.3-15.4,15.4c-3.5,3.5-8.4,3.5-11.6,0.2
						c-3.1-3.3-3-8,0.4-11.4c5.1-5.2,10.3-10.4,15.5-15.6c2.5-2.5,5.5-3.1,8.8-1.8C405.4,181.4,407.2,184.3,407.2,187.6z"/>
					<path class="st0" d="M383.3,212.8c0,0-0.1,0-0.1,0c-2.4,0-4.7-1-6.4-2.9c-3.6-3.8-3.4-9.3,0.4-13.2
						c5.3-5.4,10.6-10.7,15.6-15.6c2.9-2.9,6.4-3.6,10.2-2c3.4,1.4,5.6,4.7,5.6,8.5c0,2.6-1,4.9-2.9,6.8l-3.6,3.7
						c-3.9,3.9-7.8,7.9-11.7,11.7C388.2,211.7,385.8,212.8,383.3,212.8z M399.2,180.9c-1.7,0-3.2,0.7-4.6,2.1
						c-5,4.9-10.2,10.1-15.5,15.6c-2.9,3-3,6.8-0.4,9.6c1.2,1.3,2.9,2,4.6,2.1c1.9,0.2,3.7-0.8,5.2-2.2c3.9-3.9,7.8-7.8,11.7-11.7
						l3.6-3.7c1.5-1.5,2.2-3.1,2.2-5v0c0-2.7-1.6-5.1-4-6.1C401,181.1,400,180.9,399.2,180.9z"/>
				</g>
				<g>
					<path class="st1" d="M407,243.3c-2.6,0-5.1,0.1-7.7,0c-4.5-0.1-8-3.6-8-7.9c0-4.3,3.4-7.9,7.9-8c5.3-0.1,10.6-0.1,15.9,0
						c4.6,0.1,7.9,3.5,7.9,7.9c0,4.4-3.3,7.8-7.9,8C412.5,243.4,409.8,243.3,407,243.3z"/>
					<path class="st0" d="M412.1,244.7c-0.9,0-1.7,0-2.6,0l-2.5,0l-2.4,0c-1.8,0-3.6,0-5.3,0c-5.2-0.2-9.2-4.2-9.3-9.2
						c0-5.1,4-9.2,9.2-9.3c5.1-0.1,10.5-0.1,16,0c5.2,0.1,9.2,4,9.2,9.2c0,5.1-3.9,9.1-9.1,9.3C414.2,244.6,413.2,244.7,412.1,244.7
						z M407,242l2.6,0c1.9,0,3.7,0,5.6,0c3.8-0.1,6.6-3,6.6-6.7c0-3.8-2.8-6.5-6.7-6.6c-5.5-0.1-10.8-0.1-15.9,0
						c-3.8,0.1-6.7,3-6.7,6.7c0,3.6,3,6.5,6.7,6.6c1.7,0.1,3.5,0,5.2,0L407,242z"/>
				</g>
				<g>
					<path class="st1" d="M241.9,336.3c3.3,0,5.8,1.5,7.2,4.5c1.4,3,1.2,6-1.1,8.4c-3.9,4.2-8,8.3-12.2,12.2
						c-3.2,2.9-7.8,2.6-10.8-0.4c-2.9-3-3.2-7.7-0.3-10.8c3.8-4.1,7.8-8,11.8-11.8C238.1,337,239.9,336.2,241.9,336.3z"/>
					<path class="st0" d="M230.8,364.7c-2.4,0-4.8-0.9-6.6-2.8c-3.5-3.5-3.6-9.1-0.3-12.6c3.5-3.7,7.1-7.3,10.7-10.8l1.1-1.1
						c1.7-1.6,3.9-2.5,6.2-2.5c3.9,0.1,6.8,1.9,8.3,5.3c1.7,3.6,1.2,7.2-1.3,9.9c-4,4.4-8.2,8.5-12.2,12.3
						C235.1,364,232.9,364.7,230.8,364.7z M241.8,337.6c-1.6,0-3.1,0.6-4.2,1.7l-1.1,1.1c-3.5,3.5-7.2,7-10.6,10.7
						c-2.4,2.6-2.3,6.5,0.2,9c2.6,2.6,6.4,2.8,9,0.4c4-3.7,8.1-7.8,12.1-12.1c2.3-2.4,1.7-5.2,0.8-7c-1.2-2.5-3.1-3.7-6-3.8h0
						C241.9,337.6,241.8,337.6,241.8,337.6z"/>
				</g>
			</g>
		</g>
	</g>
</g>
</svg>
