<?xml version="1.0" encoding="utf-8"?>
<!-- Generator: Adobe Illustrator 25.2.1, SVG Export Plug-In . SVG Version: 6.00 Build 0)  -->
<svg version="1.1" id="Capa_1" xmlns="http://www.w3.org/2000/svg" xmlns:xlink="http://www.w3.org/1999/xlink" x="0px" y="0px"
	 viewBox="0 0 600 600" style="enable-background:new 0 0 600 600;" xml:space="preserve">
<style type="text/css">
	.st0{fill:#CBD400;}
	.st1{fill:#026666;}
</style>
<g>
	<circle class="st0" cx="300" cy="300" r="208"/>
	<g id="gzqZgM.tif">
		<g>
			<path class="st1" d="M192.2,416.9c0-57.7,0-115.4,0-173.1c0.7-0.8,1.3-1.7,2.1-2.5c19.5-19.6,39.1-39.1,58.6-58.7
				c1.5-1.5,3-2.2,5.2-2.2c35.9,0,71.7,0,107.6,0c4.9,0,6.6,1.6,6.6,6.6c0,75.7,0,151.4,0,227c0,3.1-0.9,5.3-3.8,6.6
				c-57.5,0-115,0-172.6,0C194.3,419.8,193,418.6,192.2,416.9z M362.3,300.6c0-35.8,0-71.6,0-107.4c0-2-0.3-2.8-2.6-2.8
				c-31.7,0.1-63.3,0.1-95,0c-2.1,0-2.6,0.5-2.6,2.6c0.1,17,0.1,33.9,0,50.9c0,5.1-1.5,6.6-6.5,6.6c-16.8,0-33.6,0-50.4,0
				c-3.1,0-3.1,0-3.1,3c0,51.5,0,102.9-0.1,154.4c0,2.4,0.7,2.9,3,2.9c51.4-0.1,102.8-0.1,154.3,0c2.3,0,3-0.5,3-2.9
				C362.3,372,362.3,336.3,362.3,300.6z M252.2,198.3c-14,14-28.1,28.1-42.1,42.1c0.1,0,0.5,0.1,0.9,0.1c13.1,0,26.2,0,39.3,0.1
				c1.9,0,1.9-0.8,1.9-2.2c0-12.8,0-25.6,0-38.4C252.2,199.3,252.5,198.6,252.2,198.3z"/>
		</g>
	</g>
	<g>
		<g>
			<path class="st1" d="M281.2,333.9c0-6,0-11.8,0-17.5c0-1.3-0.7-1.5-1.7-1.7c-4.4-1-8.7-2.3-12.7-4.5c-12.5-6.9-13.7-21.1-2.5-30
				c4.2-3.3,9-5.3,14.3-6.2c2-0.3,2.8-1,2.6-3.1c-0.2-1.4-0.1-2.9,0-4.3c0.3-3.3,2.9-5.7,6.1-5.7c3.2,0,5.7,2.4,6.1,5.7
				c0.2,2.3-1,5.1,0.6,6.6c1.3,1.3,4.1,1.2,6.2,1.9c5.6,1.7,10.5,4.5,14.2,9.2c1.9,2.5,3.1,5.3,3.5,8.4c0.4,3.3-1.6,6.2-4.7,6.9
				c-3.3,0.7-6.3-1.2-7.2-4.5c-1.2-4.3-7-8.8-11.3-8.8c-1.2,0-1.2,0.7-1.2,1.5c0,5.2,0,10.3,0,15.5c0,1.6,1,1.8,2.2,2
				c5,1.1,9.8,2.6,14.1,5.5c10.2,6.7,11.2,19.1,2.3,27.4c-4.6,4.3-10.2,6.7-16.4,7.8c-1.7,0.3-2.3,0.9-2.2,2.6
				c0.1,1.6,0.1,3.3-0.1,4.9c-0.3,3.2-2.7,5.5-5.8,5.6c-3.1,0.1-5.9-2.3-6.2-5.6c-0.2-1.5-0.2-3.1,0-4.6c0.1-1.8-0.4-2.6-2.4-3
				c-6.6-1.2-12.6-3.8-17.3-8.9c-2.6-2.8-4.3-6.1-4.8-9.9c-0.4-3.3,1.7-6.2,4.8-6.8c2.8-0.6,6.2,1,6.8,3.9
				C269.9,330.9,275.4,332.2,281.2,333.9z M293.4,325.4c0,2.2,0,4.4,0,6.6c0,0.8-0.2,1.9,1.3,1.5c3.7-1,7.3-2.3,9.8-5.4
				c1.8-2.2,1.5-4.4-0.6-6.3c-2-1.9-4.5-2.8-7.1-3.6c-3.5-1.1-3.5-1.1-3.5,2.4C293.4,322.2,293.4,323.8,293.4,325.4z M281.2,294
				c0-2.2,0-4.4,0-6.6c0-0.9-0.2-1.5-1.3-1.2c-3.4,0.9-6.7,2.2-9.2,4.8c-2.4,2.6-2.2,5.1,0.5,7.4c2.3,1.8,5,2.6,7.7,3.5
				c1.6,0.5,2.5,0.4,2.3-1.7C281.1,298.2,281.2,296.1,281.2,294z"/>
			<path class="st0" d="M287.3,360.2c-3.7,0-6.9-2.9-7.3-6.7c-0.2-1.6-0.2-3.2,0-4.8c0.1-1.1,0.1-1.3-1.3-1.6
				c-7.6-1.4-13.5-4.4-18-9.3c-2.9-3.1-4.6-6.7-5.1-10.6c-0.5-3.9,2-7.4,5.8-8.2c3.3-0.7,7.5,1.1,8.4,4.9c1.2,5.5,5.1,6.9,10.2,8.4
				l0-3.1c0-4.3,0-8.5,0-12.7c0-0.2,0-0.3,0-0.3c0,0-0.4-0.1-0.6-0.1c-5.3-1.2-9.5-2.6-13.1-4.6c-6.3-3.5-10.3-9.1-10.8-15.3
				c-0.5-6.2,2.5-12.3,8.2-16.8c4.3-3.4,9.3-5.5,14.9-6.5c1.6-0.3,1.6-0.6,1.5-1.7c-0.2-1.6-0.1-3.2,0-4.6c0.3-3.9,3.5-6.9,7.3-6.9
				c0,0,0,0,0,0c3.8,0,6.9,2.9,7.3,6.9c0.1,0.9,0,1.9-0.1,2.8c-0.1,1.3-0.3,2.5,0.3,3.1c0.6,0.6,1.9,0.8,3.2,1
				c0.8,0.1,1.7,0.3,2.4,0.5c6.4,2,11.3,5.1,14.8,9.7c2.1,2.7,3.4,5.7,3.8,9c0.5,4-1.9,7.5-5.7,8.3c-3.9,0.8-7.6-1.4-8.8-5.4
				c-1.1-3.7-6.2-7.8-10-7.9c0,0.1,0,0.1,0,0.2l0,4.5c0,3.7,0,7.3,0,11c0,0.3,0.1,0.4,0.1,0.4c0.1,0.1,0.6,0.2,1,0.3
				c6.3,1.4,10.8,3.1,14.6,5.7c5.2,3.5,8.4,8.5,8.9,14.1c0.5,5.6-1.8,11.1-6.4,15.4c-4.5,4.2-10,6.8-17,8.1
				c-1.2,0.2-1.2,0.4-1.2,1.2c0.1,1.6,0.1,3.3-0.1,5.1c-0.3,3.8-3.3,6.7-7.1,6.8C287.4,360.2,287.4,360.2,287.3,360.2z M262.8,321.3
				c-0.3,0-0.6,0-0.9,0.1c-2.5,0.5-4.1,2.8-3.8,5.4c0.4,3.4,1.9,6.5,4.4,9.2c4.1,4.4,9.6,7.2,16.6,8.5c2.6,0.5,3.6,1.8,3.4,4.3
				c-0.1,1.5-0.1,2.9,0,4.4c0.3,2.6,2.4,4.5,4.9,4.4c2.5-0.1,4.4-1.9,4.6-4.4c0.1-1.6,0.2-3.2,0.1-4.7c-0.2-3,1.8-3.7,3.3-3.9
				c6.5-1.2,11.6-3.6,15.7-7.4c4-3.8,6-8.5,5.6-13.3c-0.4-4.8-3.1-9.1-7.7-12.1c-3.6-2.4-7.8-4-13.6-5.3c-1.3-0.3-3.2-0.7-3.2-3.3
				c0-3.7,0-7.3,0-11l0-4.5c0-0.6,0-1.5,0.7-2.1c0.4-0.4,1-0.6,1.8-0.6c0,0,0,0,0,0c4.9,0,11.1,4.8,12.5,9.7
				c0.8,2.7,3.1,4.2,5.7,3.6c2.5-0.5,4.1-2.8,3.7-5.4c-0.4-2.8-1.5-5.4-3.3-7.7c-3.2-4.1-7.7-7-13.6-8.8c-0.7-0.2-1.4-0.3-2.1-0.4
				c-1.7-0.3-3.4-0.6-4.6-1.8c-1.4-1.4-1.2-3.4-1-5.2c0.1-0.8,0.2-1.6,0.1-2.2c-0.3-2.7-2.2-4.7-4.8-4.5c-2.5,0-4.6,2-4.8,4.6
				c-0.1,1.2-0.2,2.7,0,4c0.5,3.5-1.8,4.3-3.6,4.6c-5.2,0.9-9.8,2.9-13.7,6c-5,4-7.6,9.3-7.2,14.6c0.4,5.3,3.9,10.1,9.5,13.2
				c3.4,1.9,7.3,3.2,12.3,4.3c1,0.2,2.8,0.6,2.8,3c0,4.2,0,8.3,0,12.6l0,6.6l-2.6-0.8c-5.5-1.6-11.1-3.3-12.7-10.5
				C266.8,322.4,264.7,321.3,262.8,321.3z M294.1,334.8c-0.5,0-0.9-0.1-1.3-0.4c-0.8-0.6-0.8-1.6-0.8-2.2c0-1.8,0-3.4,0-5l0-1.8
				l0-4.9c0-2.1,0-3.2,0.9-3.9c1-0.7,2-0.4,4.2,0.3c2.5,0.8,5.3,1.8,7.6,3.9c2.6,2.5,2.9,5.4,0.7,8.1c-2.9,3.5-6.9,4.9-10.5,5.8
				C294.7,334.8,294.4,334.8,294.1,334.8z M294.7,318.9c0,0.4,0,1,0,1.7l0,6.7c0,1.6,0,3.1,0,4.7l0,0.2c3.4-0.9,6.6-2.1,8.8-4.9
				c1.3-1.6,1.2-3-0.5-4.6c-1.9-1.7-4.3-2.6-6.6-3.3C295.8,319.2,295.1,319,294.7,318.9z M280.2,303.5c-0.6,0-1.1-0.2-1.7-0.3
				l-0.6-0.2c-2.6-0.8-5.2-1.7-7.5-3.6c-1.7-1.4-2.6-2.9-2.7-4.5c-0.1-1.6,0.6-3.2,2-4.8c2.8-2.9,6.4-4.2,9.8-5.2
				c0.9-0.2,1.6-0.1,2.1,0.3c0.9,0.7,0.8,1.8,0.8,2.2c0,1.6,0,3.1,0,4.7l0,1.9c0,0.7,0,1.3,0,2c0,1.5,0,2.8,0.1,4.2
				c0.1,0.9,0,2.1-0.9,2.9C281.2,303.4,280.7,303.5,280.2,303.5z M279.9,287.6c-3.5,1-6.2,2.1-8.3,4.4c-0.9,1-1.4,1.9-1.3,2.8
				c0.1,0.9,0.6,1.8,1.7,2.7c1.9,1.5,4.2,2.3,6.7,3.1l0.6,0.2c0.3,0.1,0.5,0.1,0.6,0.2c0-0.1,0-0.3,0-0.5c-0.1-1.5-0.1-3-0.1-4.4
				c0-0.6,0-1.3,0-1.9l0-1.9C279.9,290.6,279.9,289.1,279.9,287.6z"/>
		</g>
	</g>
</g>
</svg>
