<svg xmlns="http://www.w3.org/2000/svg" viewBox="0 0 221 166"><g id="Capa_2" data-name="Capa 2"><g id="tNFpu4.tif"><path d="M116.74,141.68h-4.51l-1.38-.89a15.91,15.91,0,0,1-2.25-1.53L99,131c-4.9-4.23-9.81-8.45-14.69-12.71-5.67-4.93-12.21-10.94-17.71-18.2a45.71,45.71,0,0,1-8.18-16.19,45.71,45.71,0,0,1-.93-5.18l-.28-2.38.22-5.86a35.75,35.75,0,0,1,1.9-8.84C63.46,50.26,71.22,43,82.43,40a24.74,24.74,0,0,1,3.09-.58c.53-.08,1.06-.15,1.58-.27L88.32,39l5.91.25,0,0a30.26,30.26,0,0,1,15.55,6.81,36.17,36.17,0,0,1,4.86,4.81A32,32,0,0,1,133,39.6c.66-.14,1.34-.25,2-.37l1.76-.23,6.28.25a35,35,0,0,1,6.35,1.44c11,4,18.28,12,21.5,24a35.68,35.68,0,0,1,.81,4.44c.09.66.18,1.32.3,2l.09,1L172,77.42a40.5,40.5,0,0,1-7,19.4c-4.86,7.38-11,13.36-16.91,18.72-5.67,5.14-11.49,10.11-17.31,15.08q-4.22,3.6-8.42,7.23l-.52.46a17.1,17.1,0,0,1-4,2.83ZM68.29,76l.18,1.28a31.47,31.47,0,0,0,.68,3.88,34.69,34.69,0,0,0,6.29,12.3A112.18,112.18,0,0,0,91.6,110c4.87,4.25,9.76,8.46,14.65,12.68l8.43,7.27.48-.42c2.8-2.43,5.64-4.86,8.47-7.28,5.74-4.89,11.47-9.79,17.06-14.86,5.38-4.87,10.92-10.26,15.1-16.61a29.15,29.15,0,0,0,5.13-14l.14-4.15c-.11-.65-.2-1.29-.29-1.93a22.94,22.94,0,0,0-.54-3.07c-2.25-8.39-7-13.78-14.55-16.48a25.12,25.12,0,0,0-4.34-.93l-.75-.12-3.66.06-1.71.32c-5,1-9.26,3.86-12.93,8.63a26.27,26.27,0,0,0-2.24,3.34,5.92,5.92,0,0,1-5.26,3.48c-1.32.11-3.71-.37-5.4-3.3a28.12,28.12,0,0,0-6.54-7.93,19.07,19.07,0,0,0-10.29-4.46L91.65,50H88.88c-.6.12-1.2.2-1.8.29a15.78,15.78,0,0,0-1.8.32c-7.61,2-12.68,6.85-15.51,14.74a25.9,25.9,0,0,0-1.34,6.35,9.27,9.27,0,0,1-.14.92ZM93.6,39.19l.26,0Z" fill="#f60"/></g></g></svg>