<svg id="Capa_1" data-name="Capa 1" xmlns="http://www.w3.org/2000/svg" viewBox="0 0 253 256"><g id="tKOqCj.tif"><path d="M10,131.21c1.43-2.92,3.95-4.86,6.27-7q52.41-48,104.82-96.08c4.76-4.36,8.15-4.35,12.82,0q52.88,49.37,105.77,98.72a13.3,13.3,0,0,1,3.32,4.79v3.18c-2.84,7.27-9.69,7.14-13.89,2.67-3.31-3.53-7-6.68-10.59-10-.39-.36-.65-1.08-1.56-.75V222.1c0,6.26-2.77,9-9,9H155.17c-6.38,0-9.07-2.72-9.07-9.16,0-14.15-.06-28.3.06-42.45,0-2.28-.68-2.71-2.79-2.69-10.54.11-21.09,0-31.63.06-3.55,0-3.08-.32-3.08,3q0,20.78,0,41.55c0,.6,0,1.21,0,1.81-.18,4.94-3.14,7.89-8.06,7.9q-27.3,0-54.61,0c-3.85,0-6.86-2.18-7.62-5.55a17.51,17.51,0,0,1-.23-3.84q0-47.1,0-94.22c0-.83.28-1.75-.43-2.69l-14.14,13a10.33,10.33,0,0,1-3.76,2.48c-4.11,1.33-7.42-.5-9.77-5.42Zm43,32c0,16.88,0,33.75,0,50.63,0,1.8.34,2.48,2.33,2.47q18.09-.15,36.18,0c1.95,0,2.34-.59,2.33-2.42-.07-14.23,0-28.46,0-42.68,0-6.56,2.62-9.15,9.26-9.15H151.9c6.46,0,9.15,2.67,9.15,9.06,0,14.3,0,28.6,0,42.9,0,1.76.41,2.3,2.23,2.28q18.09-.12,36.18,0c2,0,2.66-.4,2.65-2.56q-.12-49.71,0-99.43a4.61,4.61,0,0,0-1.66-3.7Q164.64,77.27,129,43.87c-1.21-1.14-1.83-1.16-3.07,0q-35.53,32.7-71.19,65.27a5,5,0,0,0-1.8,4.11C53,129.88,53,146.53,53,163.17Z" fill="#026666"/></g></svg>