<svg id="Capa_1" data-name="Capa 1" xmlns="http://www.w3.org/2000/svg" viewBox="0 0 253 256"><path d="M135.08,209.72v25.87H120.43V209.72C98,208.58,76.71,200.8,64.81,189.81L73.28,172c10.76,9.85,28.61,17.17,47.15,18.32V137.16C95.25,131,68.7,123,68.7,91.83c0-22.66,16.25-42.35,51.73-45.32V20.41h14.65V46.28c17.17.68,34.34,5.72,46.47,14L174,78.55a82.55,82.55,0,0,0-38.92-12.82v53.34c25.64,6.41,53.11,14,53.11,45.33C188.19,187.06,171.25,206.75,135.08,209.72Zm-14.65-94.31V66c-20.37,2.52-29.3,12.82-29.3,25C91.13,105.11,104,111.06,120.43,115.41Zm45.33,50.36c0-14.65-13.74-20.37-30.68-25V190C156.37,188,165.76,178.14,165.76,165.77Z" fill="#026666"/></svg>