<?xml version="1.0" encoding="utf-8"?>
<!-- Generator: Adobe Illustrator 25.2.1, SVG Export Plug-In . SVG Version: 6.00 Build 0)  -->
<svg version="1.1" id="Capa_1" xmlns="http://www.w3.org/2000/svg" xmlns:xlink="http://www.w3.org/1999/xlink" x="0px" y="0px"
	 viewBox="0 0 600 600" style="enable-background:new 0 0 600 600;" xml:space="preserve">
<style type="text/css">
	.st0{fill:#CBD400;}
	.st1{fill:#026666;}
</style>
<g>
	<circle class="st0" cx="300" cy="300" r="208"/>
	<g id="QNKC4f_1_">
		<g>
			<path class="st1" d="M209.8,332.4c0-30.8,0-61.6,0-92.4c0-7.6,0.9-8.5,8.6-8.5c9.9-0.1,9.9-0.1,9.9-9.8c0-8,0.5-8.4,8.6-8.4
				c9.7-0.1,9.7-0.1,9.7-10.1c0-7.6,0.9-8.4,8.7-8.4c45.5,0,91.1,0,136.6,0c7.3,0,8.1,0.8,8.1,7.8c0,25.8,0,51.6,0,77.4
				c0,7.4-2.1,8.7-9.1,6.1c-21.2-8.1-44.3,3.3-50.6,25c-6.2,21.3,7.1,43.2,29.2,47.9c21.4,4.6,42.2-10.3,45.3-32.3
				c0.2-1.6,0.4-3.3,0.5-4.9c0.2-2.8,1.7-4.6,4.5-4.6c3,0,4.7,1.9,4.7,5c0,7.5-1.8,14.6-5.2,21.3c-3.8,7.4-9.1,13.4-16.1,17.9
				c-2.3,1.5-3.1,3.2-3.1,5.8c0.2,7.6-0.1,15.1,0.1,22.7c0.2,5.2-1.9,7.3-7.1,7.4c-11.2,0.1-11.4,0.3-11.4,11.5c0,5.1-2.2,6.7-7,6.8
				c-11,0.1-11.2,0.2-11.2,11.2c0,5-1.8,7.3-7.2,7.3c-46.5-0.1-92.9-0.1-139.4,0c-5.4,0-7-2.3-7-7.4
				C209.9,395,209.8,363.7,209.8,332.4z M219.1,332.5c0,28.8,0.1,57.5-0.1,86.3c0,4,0.6,5.8,5.3,5.8c41.5-0.2,83-0.2,124.5,0
				c3.8,0,5.1-1,5-4.9c-0.2-17.5-0.2-35,0-52.6c0-2.9-1-4.6-3.4-6.3c-28.1-20.1-28.2-58.8,0-78.6c2.7-1.9,3.4-3.8,3.4-6.8
				c-0.1-9.8-0.3-19.6,0.1-29.3c0.1-4.2-1.1-5.2-5.2-5.2c-41.3,0.2-82.6,0.2-123.9,0c-4.8,0-5.8,1.5-5.7,6
				C219.2,275.4,219.1,303.9,219.1,332.5z M323.6,203.9c-20.8,0-41.6,0.1-62.5-0.1c-3.7,0-5.1,0.8-5.2,4.8c-0.1,4.4,2,4.6,5.4,4.6
				c37.2-0.1,74.4-0.1,111.7-0.1c8,0,8.6,0.5,8.6,8.4c0,15.8,0.3,31.7-0.2,47.5c-0.2,6.2,3.8,6,7.3,6.1c4.1,0.1,2.1-3.6,2.1-5.5
				c0.2-19.7-0.1-39.4,0.2-59.1c0.1-5.2-1.1-6.9-6.6-6.8C364.1,204.1,343.9,203.9,323.6,203.9z M305.5,222.4c-21,0-42,0.1-63-0.1
				c-3.8,0-5,0.9-5.1,4.9c-0.1,4.8,2.6,4.3,5.6,4.3c37.2,0,74.5,0,111.7,0c7.5,0,8.5,1.1,8.5,8.7c0,10.5,0,21,0.1,31.5
				c0,1.3-0.8,3,1.3,3.7c3.4,1.1,7.7-2,7.7-5.6c0-14.2-0.1-28.4,0.1-42.6c0.1-4-1.2-4.9-5-4.9C346.8,222.5,326.1,222.4,305.5,222.4z
				 M363.3,386.3c0,5.5,0.1,11,0,16.5c-0.1,3.5,2.1,3.3,4.4,3.1c1.9-0.2,4.8,1.1,4.7-2.7c0-10.7,0.1-21.3-0.1-32
				c-0.1-4.7-4.5-2.8-6.8-3.5c-3.2-1-2,2.2-2.1,3.6C363.2,376.4,363.3,381.3,363.3,386.3z M390.9,377.2c0-1.3,0-2.6,0-3.8
				c0-6.8,0-6.7-6.6-5c-2.1,0.5-2.7,1.4-2.7,3.3c0,3.5,0.1,6.9,0,10.4c-0.1,3.1-0.2,5.5,4.4,5.5c4.3,0,5.5-1.6,5-5.4
				C390.7,380.5,390.9,378.9,390.9,377.2z"/>
			<path class="st1" d="M377,338.5c-1.9,0-3.1-1-4.1-2.4c-5.9-8-11.7-16-17.6-24.1c-1.7-2.4-2.2-4.9,0.3-6.9
				c2.6-2.1,5.2-1.3,7.1,1.3c4,5.5,8.2,10.9,12,16.5c2.2,3.3,3.6,3.5,6.5,0.7c11.4-10.9,23.1-21.6,34.8-32.4
				c1.2-1.1,2.4-2.3,3.8-3.1c2-1.1,4-0.8,5.5,1c1.5,1.7,1.8,3.6,0.4,5.6c-0.6,0.9-1.5,1.7-2.3,2.4c-13.9,12.9-27.8,25.8-41.7,38.7
				C380.3,337.1,379,338.4,377,338.5z"/>
			<path class="st1" d="M283.1,369c-12.7,0-25.4,0-38.1,0c-3.6,0-7.1-0.3-6.9-4.9c0.2-4.2,3.6-4.4,6.9-4.4c25.4,0,50.8,0,76.2,0
				c3.5,0,6.7,0.6,6.7,4.7c0,4.2-3.3,4.7-6.7,4.7C308.5,369,295.8,369,283.1,369C283.1,369,283.1,369,283.1,369z"/>
			<path class="st1" d="M278.9,340.5c-11.2,0-22.4,0-33.7,0c-3.6,0-7.2-0.4-7.1-4.8c0-4.5,3.7-4.7,7.3-4.7c22.8,0,45.6,0,68.4,0
				c3.3,0,6.7,0.3,6.8,4.5c0.1,4.7-3.4,5-6.9,5C302.1,340.5,290.5,340.5,278.9,340.5z"/>
			<path class="st1" d="M278.9,302.5c10.8,0,21.7,0,32.5,0c0.9,0,1.8,0,2.8,0c3.3,0.1,6.6,0.6,6.4,4.9c-0.2,3.9-3.1,4.5-6.3,4.5
				c-6.8,0-13.6,0-20.4,0c-16.4,0-32.7,0-49.1,0c-3.4,0-6.7-0.5-6.7-4.6c-0.1-4.2,3.2-4.8,6.6-4.8
				C256.1,302.5,267.5,302.5,278.9,302.5C278.9,302.5,278.9,302.5,278.9,302.5z"/>
			<path class="st1" d="M282.9,397.5c-12.7,0-25.4,0-38.1,0c-3.4,0-6.7-0.3-6.7-4.6c0-4.2,3.2-4.7,6.6-4.7c25.6,0,51.1,0,76.7,0
				c3.5,0,6.6,0.7,6.5,4.9c-0.1,3.8-3.2,4.4-6.4,4.4C308.6,397.4,295.8,397.5,282.9,397.5z"/>
			<path class="st1" d="M283.4,274.1c12.5,0,25,0,37.5,0c3.3,0,6.8,0.2,7,4.3c0.2,4.5-3.4,4.9-7,4.9c-25.4,0-50.8,0-76.2,0
				c-3.4,0-6.7-0.5-6.7-4.6c0-4.2,3.3-4.6,6.7-4.6C257.6,274.1,270.5,274.1,283.4,274.1z"/>
		</g>
	</g>
</g>
</svg>
