<?xml version="1.0" encoding="utf-8"?>
<!-- Generator: Adobe Illustrator 25.2.1, SVG Export Plug-In . SVG Version: 6.00 Build 0)  -->
<svg version="1.1" id="Capa_1" xmlns="http://www.w3.org/2000/svg" xmlns:xlink="http://www.w3.org/1999/xlink" x="0px" y="0px"
	 viewBox="0 0 600 600" style="enable-background:new 0 0 600 600;" xml:space="preserve">
<style type="text/css">
	.st0{fill:#CBD400;}
	.st1{fill:#026666;}
</style>
<g>
	<circle class="st0" cx="300" cy="300" r="208"/>
	<g id="GuWZ3k.tif">
		<g>
			<path class="st1" d="M426.6,257.7c-3.7,7.6-5.5,15.9-9.1,23.5c-5.5,11.8-13.1,22.3-21,32.5c-1.1,1.4-1.1,2.1,0.2,3.4
				c3.8,3.9,8.1,7.3,10.6,12.4c5.8,11.7-0.5,26.4-13,30.2c-0.8,0.2-1.5,0.4-2.3,0.7c6.8,12,6.5,21.9-0.8,29.2
				c-8.4,8.4-17.3,8.9-30,1.8c-3.9,18.1-26.7,24.1-40.2,8.1c-0.3,0.8-0.5,1.6-0.8,2.3c-4.6,14.6-22.4,20-34.3,10.3
				c-0.1-0.1-0.1-0.1-0.2-0.2c-3.7-3.8-7.8-6.5-13.1-8.1c-6.7-2-10.5-7.6-11.5-14.7c-0.4-2.5-1.6-3.7-4-3.9
				c-9-0.6-16.9-8.7-17.1-17.7c0-1.6-0.5-2.2-2.3-2.3c-11.3-0.6-18.6-8.3-18.9-19.6c0-1.4-0.3-1.8-1.7-2
				c-14.3-1.8-21.5-17.4-13.6-29.5c0.8-1.2,0.9-2.1,0.4-3.4c-0.9-2.3-1.6-4.7-2.2-7.1c-0.4-1.2-1-2.2-1.8-3.2
				c-7.8-8.7-15.6-17.4-23.4-26.1c-6.2-6.9-6.1-15.4,0.5-22c19.5-19.6,39-39.1,58.5-58.6c6.5-6.5,15.3-6.7,21.8-0.6
				c1.6,1.5,3,1.9,5.2,1.6c11.3-1.7,22.6-3.1,34-4.7c14.6-2,29.2-4,43.8-6c0.6-0.1,1.3-0.2,1.9-0.6c2.3-1.5,4.8-2.6,7.4-3.4
				c1.7,0,3.3,0,5,0c4.8,1.3,8.3,4.6,11.7,8c17.5,17.6,35,35.2,52.6,52.7c3.4,3.3,6.5,6.7,7.8,11.4
				C426.6,254.1,426.6,255.9,426.6,257.7z M386.2,350.3c4.3,0.1,6.9-0.8,9.1-2.8c5.3-4.9,5.2-12-0.4-17.5
				c-30.1-30.1-60.1-60.1-90.2-90.2c-1-1-2.1-1.4-3.5-1.4c-11.7-0.1-23.4-0.3-35.1-0.4c-10.8-0.2-19-6.1-21.7-16.3
				c-1.8-6.9-0.4-13.3,4.1-18.9c0.5-0.6,1.5-1.1,1.2-2c-0.4-1-1.5-1.2-2.5-1.4c-2.2-0.3-3.7,0.9-5.2,2.4
				c-19.2,19.2-38.3,38.4-57.5,57.5c-3.3,3.3-3.3,5.4-0.1,9c7.9,8.8,15.8,17.7,23.7,26.5c1.5,1.6,2.6,3.4,3,5.6
				c0.3,1.3,0.4,3.2,1.2,3.7c1.2,0.7,2-1.3,3.2-1.8c0.2-0.1,0.4-0.2,0.6-0.4c10.7-6.1,23.3-1.4,27.7,10.2c0.4,1,0.5,1.7,2,1.1
				c7.5-3.3,14.5-2.3,20.6,3c5.9,5.1,7.7,11.8,5.8,19.3c-0.4,1.4,0,1.8,1.4,2.1c6.9,1.7,11.5,6,13.8,12.7c0.4,1.3,1.2,2.3,2.1,3.3
				c13.5,13.5,27,27,40.5,40.4c0.8,0.8,1.7,1.6,2.6,2.3c5.8,4.3,13.7,2.6,17.1-3.7c2.5-4.7,1.5-9.9-2.8-14.2
				c-13.2-13.2-26.4-26.4-39.6-39.6c-0.8-0.8-1.6-1.7-2.2-2.7c-1.4-2.2-1-4.8,0.8-6.6c1.7-1.7,4.6-2.1,6.6-0.8c1,0.7,2,1.5,2.8,2.4
				c16.7,16.7,33.4,33.4,50.1,50.1c0.9,0.9,1.8,1.8,2.7,2.5c7,5.4,17,1.6,18.4-7.1c0.7-4.4-1.1-7.8-4.2-10.9c-17-17-34-34-51-51
				c-0.8-0.8-1.6-1.7-2.2-2.6c-1.3-2.1-0.9-4.9,0.8-6.6c1.7-1.8,4.5-2.2,6.6-0.8c1,0.6,1.8,1.4,2.7,2.2c13,13,26.1,26,39,39
				C380.9,348.3,383.8,350.2,386.2,350.3z M254,216.2c0,6.3,5,11.1,11.8,11.2c13,0.2,26,0.4,39,0.5c2,0,3.4,0.6,4.8,2
				c25.3,25.4,50.6,50.7,75.9,76c0.4,0.4,0.9,0.8,1.2,1.2c0.7,0.8,1.2,0.8,1.9-0.1c6.8-8.9,13.4-17.9,18.5-27.9
				c3.4-6.6,4.9-13.9,7.9-20.6c1.9-4.2,1.6-5.2-1.7-8.5c-8.1-8.2-16.3-16.3-24.4-24.5c-10.9-10.9-21.8-21.8-32.7-32.7
				c-2.9-2.9-4.6-3.2-7.9-1c-2.6,1.7-5.4,2.4-8.4,2.7c-1.7,0.2-3.5,0.4-5.2,0.7c-23.6,3.3-47.2,6.5-70.9,9.7
				C258.4,205.7,254,210.6,254,216.2z M229.1,347.4c0.1,2.6,1.8,5.4,5.2,6.9c3.5,1.6,6.9,1,9.6-1.7c5.5-5.3,10.9-10.7,16.2-16.1
				c3.7-3.8,3.6-9.1,0-12.6c-3.5-3.4-8.8-3.4-12.5,0.3c-5.3,5.2-10.6,10.5-15.8,15.8C230,341.7,229,343.8,229.1,347.4z M258.9,375.2
				c1.8,0,3.5-0.4,4.9-1.5c4.6-3.9,8.9-8.1,12.8-12.8c2.7-3.3,2-8.3-1.1-11.3c-3.1-3-8.1-3.5-11.3-0.6c-4.2,3.8-8.3,7.9-12.1,12.1
				c-2.4,2.6-2.6,5.9-1,9C252.5,373.4,255.3,375,258.9,375.2z M226.5,309.3c-2.7,0-4.6,0.6-6.1,2c-2.8,2.6-5.6,5.2-8,8.1
				c-3,3.4-2.6,8.3,0.4,11.5c3.2,3.3,8.1,3.8,11.7,0.9c3.1-2.5,5.9-5.4,8.4-8.4c2.3-2.7,2.5-5.9,0.9-9.1
				C232.3,311,229.5,309.4,226.5,309.3z M279.8,395.2c1.8,0,3.5-0.4,4.9-1.5c2.7-2.1,5.2-4.5,7.2-7.2c2.4-3.3,1.8-8-1.1-10.9
				c-3-3-7.7-3.6-11.1-1.1c-2.7,1.9-5,4.3-7,7c-2,2.7-2.2,5.9-0.6,8.9C273.6,393.5,276.2,395.1,279.8,395.2z M303.6,383.4
				c-0.5,2.7-1,5.1-2.3,7.3c-2.4,4.2-5.9,7.3-9.5,10.4c-1.1,1-1.5,1.5-0.1,2.6c3.8,3,7.9,3.8,12.3,1.8c4.4-2,6.7-5.5,6.7-10.4
				C310.7,389.9,307.4,386.7,303.6,383.4z"/>
		</g>
	</g>
</g>
</svg>
