<svg xmlns="http://www.w3.org/2000/svg" viewBox="0 0 221 166"><g id="Capa_2" data-name="Capa 2"><path d="M205.32,84.65H15.68a7.24,7.24,0,0,0-7.23,7.24v38.26a7.24,7.24,0,0,0,7.23,7.24H20.8V151a9.34,9.34,0,0,0,9.34,9.34H44A9.34,9.34,0,0,0,53.3,151V137.39H167.7V151a9.34,9.34,0,0,0,9.34,9.34h13.82A9.34,9.34,0,0,0,200.2,151V137.39h5.12a7.24,7.24,0,0,0,7.23-7.24V91.89A7.24,7.24,0,0,0,205.32,84.65Z"/><path d="M44.65,72.23h.24A2.11,2.11,0,0,0,47,70.11V62A11.59,11.59,0,0,1,58.59,50.38H94.87A11.59,11.59,0,0,1,106.46,62v8.14a2.11,2.11,0,0,0,2.11,2.12h4.1a2.12,2.12,0,0,0,2.12-2.12V62a11.58,11.58,0,0,1,11.58-11.59h36.28A11.59,11.59,0,0,1,174.24,62v8.14a2.11,2.11,0,0,0,2.11,2.12,13,13,0,0,0,13-13V18.59a13,13,0,0,0-13-12.95H44.65a13,13,0,0,0-12.95,13V59.28A13,13,0,0,0,44.65,72.23Z"/></g></svg>