<svg xmlns="http://www.w3.org/2000/svg" viewBox="0 0 221 166"><g id="Capa_2" data-name="Capa 2"><path d="M155.21,55.49a39.91,39.91,0,0,0-39.59-39.91V.8H99.52V15.65A39.88,39.88,0,0,0,61.27,55.49h93.94Z"/><rect x="52.88" y="63.21" width="109.05" height="16.44"/><path d="M68,102.11a8.39,8.39,0,1,0,8.39-8.39A8.39,8.39,0,0,0,68,102.11Z"/><circle cx="107.46" cy="102.11" r="8.39"/><circle cx="138.52" cy="102.11" r="8.39"/><path d="M61.22,117.9a8.39,8.39,0,1,0,8.39,8.39A8.39,8.39,0,0,0,61.22,117.9Z"/><circle cx="92.28" cy="126.29" r="8.39"/><circle cx="123.34" cy="126.29" r="8.39"/><path d="M154.41,117.9a8.39,8.39,0,1,0,8.39,8.39A8.39,8.39,0,0,0,154.41,117.9Z"/><circle cx="45.45" cy="149.44" r="8.39"/><circle cx="76.51" cy="149.44" r="8.39"/><path d="M107.57,141.05a8.39,8.39,0,1,0,8.39,8.39A8.39,8.39,0,0,0,107.57,141.05Z"/><circle cx="138.64" cy="149.44" r="8.39"/><path d="M169.61,141.05a8.39,8.39,0,1,0,8.39,8.39A8.39,8.39,0,0,0,169.61,141.05Z"/></g></svg>