<svg id="Capa_1" data-name="Capa 1" xmlns="http://www.w3.org/2000/svg" viewBox="0 0 253 256"><g id="pyAysy.tif"><path d="M107.14,224.57a111.2,111.2,0,0,1-19.2-8.35c-20.23-11.61-35.27-28.14-46.26-48.54-9.91-18.42-15.45-38.22-18.38-58.83A284.47,284.47,0,0,1,20.82,74.1a9.51,9.51,0,0,1,3-7.43C44.17,46.46,68.55,34.51,97.14,32c37.29-3.31,69.3,8.6,96.05,34.76A9,9,0,0,1,196.12,74c-.16,3.29-.33,6.57-.81,9.83A6.73,6.73,0,1,1,182,82c.79-6.89.84-6.94-4.43-11.4-22.81-19.33-49.19-28-78.95-25.29C74.25,47.48,53.22,57.38,35.44,74.17a2.76,2.76,0,0,0-1.12,2.21c.54,26.44,4.19,52.26,15.15,76.62,9.4,20.89,23.17,38.11,42.91,50.2a85,85,0,0,0,14.16,6.89,3.42,3.42,0,0,0,2.9-.13q6.23-3,12.13-6.56c3.84-2.31,7.94-1.49,10,1.93s.72,7.3-3.1,9.67a153.21,153.21,0,0,1-18.65,9.57Z" fill="#026666"/><path d="M232.19,174.12c-.66,1.19-.51,2.55-.81,3.83A24.33,24.33,0,0,1,208,197q-27.63.25-55.27,0a24.14,24.14,0,0,1-24-23.48q-.49-23.56,0-47.14c.28-13.23,11-23.41,24.6-23.59q27-.35,54,0c13,.16,22.52,8.88,24.46,21.64a14.25,14.25,0,0,0,.39,1.46ZM180.52,143.6c-12.06,0-24.12,0-36.19,0-1.74,0-2.19.51-2.17,2.22.08,8.62,0,17.24,0,25.87,0,7.25,4.62,11.93,11.93,12q26.2.07,52.41,0c7.38,0,12-4.75,12-12.13,0-8.55-.05-17.1.05-25.65,0-1.89-.58-2.28-2.34-2.27C204.35,143.64,192.43,143.6,180.52,143.6Zm-.26-13.43c12.06,0,24.12,0,36.17,0,1.76,0,2.2-.5,2.17-2.2-.1-6.92-4.81-11.78-11.7-11.79q-26.53,0-53.05,0c-6.85,0-11.53,4.76-11.69,11.55,0,1.87.37,2.47,2.37,2.45C156.44,130.12,168.35,130.17,180.26,130.17Z" fill="#026666"/></g></svg>