<svg xmlns="http://www.w3.org/2000/svg" viewBox="0 0 221 166"><g id="Capa_2" data-name="Capa 2"><g id="nkBSfV.tif"><path d="M111,128.91h-1.43l-.82-.35A60,60,0,0,1,72,80.71c-.19-1.51-.34-3-.51-4.52V54.49a4.87,4.87,0,0,1,3-2.89q17.5-7.22,35-14.51H111l1.56.65c11.08,4.6,22.16,9.22,33.25,13.78a5,5,0,0,1,3.21,3v21.7a5.29,5.29,0,0,0-.15.69,53.46,53.46,0,0,1-.73,6.31A60.19,60.19,0,0,1,111,128.91ZM78.69,69.07A61.15,61.15,0,0,0,79.77,83.6q5.83,26,29.87,37.55a1.34,1.34,0,0,0,1.26,0,52.91,52.91,0,0,0,30.9-47.72c0-5,0-9.92,0-14.89a1.11,1.11,0,0,0-.83-1.23q-15-6.2-30-12.46a1.69,1.69,0,0,0-1.44,0q-15,6.27-30.09,12.49a1.12,1.12,0,0,0-.8,1.25C78.71,61.69,78.69,64.8,78.69,69.07Z" fill="#026666"/><path d="M127.82,72.51a3.51,3.51,0,0,1-1.1,2.3q-8.89,8.91-17.8,17.8a3.53,3.53,0,0,1-5.27,0q-4.92-4.89-9.82-9.82a3.58,3.58,0,1,1,5.07-5.06c2.28,2.24,4.55,4.5,6.77,6.79.51.52.78.45,1.25,0q7.31-7.33,14.63-14.64a3.58,3.58,0,0,1,4.72-.57A3.72,3.72,0,0,1,127.82,72.51Z" fill="#026666"/></g></g></svg>