<svg xmlns="http://www.w3.org/2000/svg" viewBox="0 0 221 166"><g id="Capa_2" data-name="Capa 2"><g id="WTW4Ye.tif"><path d="M83.4,35h51.38a9.16,9.16,0,0,1,2.29,1.87c3.86,3.87,7.7,7.76,11.61,11.58a4.89,4.89,0,0,1,1.57,3.82q0,33,0,66a13,13,0,0,1,0,1.4,2.7,2.7,0,0,1-2.41,2.37,11.4,11.4,0,0,1-1.31,0q-19.08,0-38.15,0a2.29,2.29,0,0,0-2.13,1.11A19,19,0,0,1,85,130.1c-7.45-2.52-12.07-7.76-13.17-15.56s1.89-14.18,8.44-18.72A1.92,1.92,0,0,0,81.24,94q0-27.7,0-55.42C81.2,36.85,81.75,35.61,83.4,35Zm3.49,31.79c0,8.41,0,16.82,0,25.22,0,.88.24,1.07,1.06.9a16.66,16.66,0,0,1,5.13-.11,19.15,19.15,0,0,1,16.51,22.66c-.15.79,0,1,.79,1q16.64,0,33.28,0c.7,0,1-.14,1-.91q0-30.3,0-60.58c0-.82-.27-1-1-1-3,0-6.06,0-9.09,0-2.23,0-3.28-1.06-3.28-3.26,0-3,0-6.07,0-9.1,0-.86-.26-1-1-1q-21.09,0-42.18,0c-.91,0-1.13.24-1.13,1.13C86.91,50.07,86.89,58.41,86.89,66.76Zm17.42,45a13.54,13.54,0,1,0-13.52,13.57A13.57,13.57,0,0,0,104.31,111.8Zm32.54-66.93v3c0,.25.08.42.36.42h3.08Z" fill="#026666"/><path d="M114.25,89c-5.63,0-11.25,0-16.88,0a2.79,2.79,0,0,1-2.65-4,2.76,2.76,0,0,1,2.65-1.6c1.54,0,3.07,0,4.6,0q14.43,0,28.88,0c1.89,0,3.14,1,3.2,2.68a2.79,2.79,0,0,1-3,3c-5.31,0-10.63,0-15.94,0Z" fill="#026666"/><path d="M114.34,72.08h16.32a4.67,4.67,0,0,1,1.39.11,2.82,2.82,0,0,1-.46,5.49,7,7,0,0,1-1,0H97.94a7.32,7.32,0,0,1-.94,0,2.8,2.8,0,0,1-2.55-3,2.73,2.73,0,0,1,2.74-2.65c2.28,0,4.56,0,6.84,0Z" fill="#026666"/><path d="M107.78,60.78c3.44,0,6.88,0,10.31,0a2.78,2.78,0,0,1,2.63,4.14,2.82,2.82,0,0,1-2.63,1.49H97.94a4.55,4.55,0,0,1-1.76-.24,2.81,2.81,0,0,1-1.71-3,2.68,2.68,0,0,1,2.44-2.33c1.31-.08,2.63-.05,3.94-.06Z" fill="#026666"/><path d="M81.9,118.45a3.16,3.16,0,0,1,1-2.54c1.12-1.12,2.23-2.27,3.38-3.37.43-.4.48-.65,0-1.08-1.14-1.07-2.22-2.19-3.32-3.3-1.33-1.35-1.42-3-.23-4.24s2.85-1.09,4.23.27c1.11,1.09,2.23,2.19,3.31,3.32.38.4.61.44,1,0,1.16-1.22,2.36-2.41,3.58-3.58a2.68,2.68,0,0,1,2.93-.67,2.73,2.73,0,0,1,1.85,2.29,2.85,2.85,0,0,1-1,2.52c-1.15,1.15-2.28,2.32-3.45,3.44-.38.37-.4.58,0,1,1.15,1.11,2.27,2.24,3.38,3.38,1.35,1.37,1.42,3,.21,4.23s-2.88,1.06-4.23-.27c-1.13-1.12-2.27-2.24-3.37-3.39-.34-.35-.54-.34-.88,0-1.2,1.23-2.41,2.46-3.65,3.64a2.68,2.68,0,0,1-3.19.55A2.59,2.59,0,0,1,81.9,118.45Z" fill="#026666"/></g></g></svg>