<svg xmlns="http://www.w3.org/2000/svg" viewBox="0 0 221 166"><g style="isolation:isolate"><g id="Capa_1" data-name="Capa 1"><g opacity="0.5" style="mix-blend-mode:multiply"><path d="M39.77,102.19a4.41,4.41,0,0,1-1.94-8.37L85.64,70.43a4.43,4.43,0,0,1,3.83,0l45.95,21.74a4.41,4.41,0,0,1-3.77,8l-44-20.83L41.7,101.74A4.43,4.43,0,0,1,39.77,102.19Z" fill="#606060"/><path d="M171.2,101a4.47,4.47,0,0,1-1.93-.45L123.74,78.35a4.41,4.41,0,1,1,3.86-7.93l45.53,22.15A4.41,4.41,0,0,1,171.2,101Z" fill="#606060"/><path d="M187,66.16a11.38,11.38,0,1,1-11.39-11.39,11.24,11.24,0,0,1,4.36.87,11.34,11.34,0,0,1,6.16,6.16,11.24,11.24,0,0,1,.87,4.36" fill="#606060"/></g></g></g></svg>