<svg id="Capa_1" data-name="Capa 1" xmlns="http://www.w3.org/2000/svg" viewBox="0 0 221 166"><path d="M49.84,79.66A3.51,3.51,0,0,1,48.29,73L86.37,54.36a3.52,3.52,0,0,1,3,0L126,71.65A3.51,3.51,0,0,1,123,78L87.94,61.41,51.38,79.3A3.58,3.58,0,0,1,49.84,79.66Z" fill="#00ab98"/><path d="M154.51,78.67a3.54,3.54,0,0,1-1.54-.36L116.71,60.67a3.51,3.51,0,1,1,3.07-6.31L156.05,72a3.51,3.51,0,0,1-1.54,6.67Z" fill="#00ab98"/><path d="M167.09,51a9.07,9.07,0,0,1-5.6,8.38,9.08,9.08,0,1,1,2.94-14.79A9,9,0,0,1,167.09,51" fill="#ea5d3f"/><path d="M63.4,93H54v5h8.65a2.08,2.08,0,0,1,1.42.42,1.42,1.42,0,0,1,.47,1.1,1.44,1.44,0,0,1-.46,1.12,2,2,0,0,1-1.43.44H54v5.73h9.71a2.13,2.13,0,0,1,1.48.45,1.63,1.63,0,0,1,0,2.35,2.18,2.18,0,0,1-1.48.44H52.4a2.69,2.69,0,0,1-2-.59,2.59,2.59,0,0,1-.59-1.91V92.34a3.29,3.29,0,0,1,.26-1.43A1.66,1.66,0,0,1,51,90.1a3.55,3.55,0,0,1,1.45-.26h11a2.16,2.16,0,0,1,1.48.44,1.43,1.43,0,0,1,.48,1.13,1.47,1.47,0,0,1-.48,1.15A2.16,2.16,0,0,1,63.4,93Z" fill="#026666"/><path d="M80.22,105.43a4.52,4.52,0,0,1-.78,2.66,4.66,4.66,0,0,1-2.28,1.68,10.34,10.34,0,0,1-3.66.57,9.15,9.15,0,0,1-3.54-.62,5.16,5.16,0,0,1-2.18-1.55,3.13,3.13,0,0,1-.7-1.86,1.43,1.43,0,0,1,.45-1.06,1.58,1.58,0,0,1,1.14-.44,1.33,1.33,0,0,1,.92.29,2.87,2.87,0,0,1,.62.81,4.18,4.18,0,0,0,1.41,1.5,4.35,4.35,0,0,0,2.24.49,3.24,3.24,0,0,0,1.89-.5,1.4,1.4,0,0,0,.73-1.15,1.54,1.54,0,0,0-.76-1.44,9.85,9.85,0,0,0-2.52-.87,20.36,20.36,0,0,1-3.22-1,5.15,5.15,0,0,1-2-1.39,3.15,3.15,0,0,1-.75-2.13,3.7,3.7,0,0,1,.69-2.13,4.68,4.68,0,0,1,2-1.6,7.86,7.86,0,0,1,3.23-.6,10.9,10.9,0,0,1,2.67.3,6.7,6.7,0,0,1,2,.81,4.15,4.15,0,0,1,1.21,1.13,2.22,2.22,0,0,1,.41,1.21A1.41,1.41,0,0,1,79,99.59a1.78,1.78,0,0,1-1.26.41,1.56,1.56,0,0,1-1-.33,7.09,7.09,0,0,1-1-1,3.41,3.41,0,0,0-1-.88,3.85,3.85,0,0,0-3.33.1A1.27,1.27,0,0,0,70.79,99a1.16,1.16,0,0,0,.5,1,4.42,4.42,0,0,0,1.36.63c.57.16,1.36.36,2.36.6a13.14,13.14,0,0,1,2.91,1,4.78,4.78,0,0,1,1.71,1.39A3.06,3.06,0,0,1,80.22,105.43Z" fill="#026666"/><path d="M86.13,97.18v.46a7.54,7.54,0,0,1,2.25-1.92A5.52,5.52,0,0,1,91,95.11a6.11,6.11,0,0,1,5.61,3.5,9,9,0,0,1,.86,4.07,9.77,9.77,0,0,1-.5,3.18,7.12,7.12,0,0,1-1.37,2.44,6.1,6.1,0,0,1-2,1.51,6.23,6.23,0,0,1-2.55.53,5.41,5.41,0,0,1-2.75-.65,7.6,7.6,0,0,1-2.13-1.9v5.64c0,1.65-.61,2.47-1.84,2.47a1.47,1.47,0,0,1-1.43-.64,4,4,0,0,1-.35-1.86V97.21a2.32,2.32,0,0,1,.48-1.6,1.67,1.67,0,0,1,1.3-.53,1.76,1.76,0,0,1,1.33.54A2.19,2.19,0,0,1,86.13,97.18Zm7.51,5.46a6.34,6.34,0,0,0-.47-2.55,3.68,3.68,0,0,0-1.28-1.64,3.12,3.12,0,0,0-1.82-.57,3.44,3.44,0,0,0-2.67,1.23,5.27,5.27,0,0,0-1.09,3.6,5.14,5.14,0,0,0,1.08,3.48,3.42,3.42,0,0,0,2.68,1.25,3.06,3.06,0,0,0,1.77-.55,3.75,3.75,0,0,0,1.31-1.63A6.41,6.41,0,0,0,93.64,102.64Z" fill="#026666"/><path d="M109.37,108.22a12,12,0,0,1-2.68,1.59,7.75,7.75,0,0,1-2.92.53,5.57,5.57,0,0,1-2.58-.57,4.19,4.19,0,0,1-1.72-1.55,3.9,3.9,0,0,1-.61-2.12,3.76,3.76,0,0,1,1-2.62A5,5,0,0,1,102.6,102l1.81-.37c1-.19,1.78-.37,2.47-.53s1.44-.35,2.24-.58a3.88,3.88,0,0,0-.61-2.18,2.78,2.78,0,0,0-2.24-.7,4.8,4.8,0,0,0-2.19.4,3.62,3.62,0,0,0-1.27,1.2c-.35.53-.6.88-.74,1a1.25,1.25,0,0,1-.93.25,1.66,1.66,0,0,1-1.12-.4,1.33,1.33,0,0,1-.47-1,3.1,3.1,0,0,1,.72-1.92,5,5,0,0,1,2.23-1.54,10.09,10.09,0,0,1,3.77-.61,10.82,10.82,0,0,1,4,.59,3.59,3.59,0,0,1,2,1.85,7.88,7.88,0,0,1,.6,3.35c0,.88,0,1.63,0,2.24s0,1.3,0,2a7.33,7.33,0,0,0,.36,2.2,6.88,6.88,0,0,1,.36,1.48,1.36,1.36,0,0,1-.56,1,1.85,1.85,0,0,1-1.25.48,1.7,1.7,0,0,1-1.17-.55A8,8,0,0,1,109.37,108.22Zm-.25-5.43a21,21,0,0,1-2.45.64c-1.07.22-1.81.39-2.22.49a3.2,3.2,0,0,0-1.18.62,1.6,1.6,0,0,0-.56,1.29,1.88,1.88,0,0,0,.66,1.45,2.45,2.45,0,0,0,1.72.6,4.64,4.64,0,0,0,2.1-.49,3.36,3.36,0,0,0,1.41-1.26,5.59,5.59,0,0,0,.52-2.8Z" fill="#026666"/><path d="M129.64,105.69a3.13,3.13,0,0,1-.43,1.5,5.15,5.15,0,0,1-1.3,1.52,6.79,6.79,0,0,1-2.21,1.16,9.65,9.65,0,0,1-3,.44,6.95,6.95,0,0,1-7.54-7.46,8.83,8.83,0,0,1,.91-4.09A6.52,6.52,0,0,1,118.71,96a8.38,8.38,0,0,1,4.13-1,8.13,8.13,0,0,1,2.72.43,7.12,7.12,0,0,1,2.11,1.1A5.64,5.64,0,0,1,129,98a2.86,2.86,0,0,1,.45,1.43,1.48,1.48,0,0,1-.51,1.14,1.76,1.76,0,0,1-1.24.46,1.26,1.26,0,0,1-.79-.24,3.66,3.66,0,0,1-.71-.77,5.76,5.76,0,0,0-1.47-1.57,3.66,3.66,0,0,0-4.68.78,5.54,5.54,0,0,0-1,3.55,6.71,6.71,0,0,0,.26,1.95,4.58,4.58,0,0,0,.77,1.51,3.51,3.51,0,0,0,1.22,1,3.91,3.91,0,0,0,1.58.32,3.68,3.68,0,0,0,2-.52,4.65,4.65,0,0,0,1.45-1.6,3.68,3.68,0,0,1,.76-1,1.44,1.44,0,0,1,1-.36,1.5,1.5,0,0,1,1.17.53A1.65,1.65,0,0,1,129.64,105.69Z" fill="#026666"/><path d="M134.05,93.33a2,2,0,0,1-1.36-.48,1.84,1.84,0,0,1,0-2.67,2,2,0,0,1,1.35-.52,2,2,0,0,1,1.32.47,1.64,1.64,0,0,1,.58,1.36,1.73,1.73,0,0,1-.56,1.36A2,2,0,0,1,134.05,93.33Zm1.9,3.88v10.84a2.38,2.38,0,0,1-.55,1.71,1.85,1.85,0,0,1-1.39.58,1.74,1.74,0,0,1-1.37-.6,2.44,2.44,0,0,1-.52-1.69V97.32a2.4,2.4,0,0,1,.52-1.68,1.81,1.81,0,0,1,1.37-.56,1.87,1.87,0,0,1,1.39.56A2.15,2.15,0,0,1,136,97.21Z" fill="#026666"/><path d="M153.38,102.71a8.79,8.79,0,0,1-.53,3.09,6.69,6.69,0,0,1-4,4,9.24,9.24,0,0,1-6.28,0,6.92,6.92,0,0,1-2.41-1.58,6.72,6.72,0,0,1-1.54-2.42,8.7,8.7,0,0,1-.53-3.08,8.88,8.88,0,0,1,.53-3.12,6.85,6.85,0,0,1,1.53-2.42,6.76,6.76,0,0,1,2.42-1.55,8.68,8.68,0,0,1,3.13-.54,8.54,8.54,0,0,1,3.15.55,6.84,6.84,0,0,1,2.43,1.57,6.69,6.69,0,0,1,1.54,2.42A8.71,8.71,0,0,1,153.38,102.71Zm-3.84,0a5.63,5.63,0,0,0-1-3.58,3.38,3.38,0,0,0-2.77-1.27,3.49,3.49,0,0,0-2,.57,3.64,3.64,0,0,0-1.32,1.68,7.57,7.57,0,0,0,0,5.17,3.66,3.66,0,0,0,1.31,1.68,3.42,3.42,0,0,0,2,.59,3.36,3.36,0,0,0,2.77-1.29A5.58,5.58,0,0,0,149.54,102.71Z" fill="#026666"/><path d="M63,130.62l-1-2.53H53.66l-1,2.59a8.77,8.77,0,0,1-1,2,1.59,1.59,0,0,1-1.33.53,2,2,0,0,1-1.39-.57,1.68,1.68,0,0,1-.61-1.27,3,3,0,0,1,.14-.86c.1-.29.25-.7.47-1.22l5.26-13.08.54-1.36a6.62,6.62,0,0,1,.67-1.31,2.75,2.75,0,0,1,.94-.85,3.42,3.42,0,0,1,2.89,0,2.83,2.83,0,0,1,.94.84,5.23,5.23,0,0,1,.6,1.09q.26.59.63,1.56l5.37,13a6.45,6.45,0,0,1,.63,2.16,1.74,1.74,0,0,1-.59,1.28,2,2,0,0,1-1.44.59,1.93,1.93,0,0,1-.84-.17,1.71,1.71,0,0,1-.59-.47,4.19,4.19,0,0,1-.51-.91C63.29,131.29,63.14,130.93,63,130.62ZM54.76,125H60.9l-3.1-8.32Z" fill="#026666"/><path d="M81,128.34a4.56,4.56,0,0,1-.77,2.66A4.75,4.75,0,0,1,78,132.68a10.44,10.44,0,0,1-3.67.57,9.15,9.15,0,0,1-3.54-.62,5.06,5.06,0,0,1-2.17-1.55,3.06,3.06,0,0,1-.7-1.86,1.44,1.44,0,0,1,.44-1.06,1.58,1.58,0,0,1,1.14-.44,1.38,1.38,0,0,1,.93.29,3.05,3.05,0,0,1,.61.81,4.27,4.27,0,0,0,1.41,1.5,4.35,4.35,0,0,0,2.24.49,3.24,3.24,0,0,0,1.89-.5,1.4,1.4,0,0,0,.74-1.14,1.57,1.57,0,0,0-.77-1.45,9.54,9.54,0,0,0-2.52-.86,21.47,21.47,0,0,1-3.22-1,5.27,5.27,0,0,1-2-1.4,3.15,3.15,0,0,1-.75-2.13,3.7,3.7,0,0,1,.69-2.13,4.74,4.74,0,0,1,2-1.6A7.86,7.86,0,0,1,74,118a11,11,0,0,1,2.68.3,7.21,7.21,0,0,1,2,.81,4.15,4.15,0,0,1,1.21,1.13,2.14,2.14,0,0,1,.41,1.21,1.37,1.37,0,0,1-.44,1.06,1.78,1.78,0,0,1-1.25.41,1.57,1.57,0,0,1-1-.33,6.57,6.57,0,0,1-.94-1,3.6,3.6,0,0,0-1-.88,3.26,3.26,0,0,0-1.6-.33,3.14,3.14,0,0,0-1.72.44,1.24,1.24,0,0,0-.69,1.07,1.16,1.16,0,0,0,.5,1,4.16,4.16,0,0,0,1.37.63c.57.16,1.35.37,2.35.6a13.14,13.14,0,0,1,2.91,1,4.73,4.73,0,0,1,1.72,1.4A3.07,3.07,0,0,1,81,128.34Z" fill="#026666"/><path d="M93.41,126.54H85.92a4.79,4.79,0,0,0,.52,2.25,3.48,3.48,0,0,0,1.36,1.47,3.67,3.67,0,0,0,1.88.5,4.5,4.5,0,0,0,1.25-.16,4,4,0,0,0,1.1-.49,9.71,9.71,0,0,0,1-.72l1.16-1a1.31,1.31,0,0,1,.84-.25,1.44,1.44,0,0,1,1,.32,1.12,1.12,0,0,1,.36.89,2.42,2.42,0,0,1-.41,1.19,4.77,4.77,0,0,1-1.22,1.31,7.41,7.41,0,0,1-2.07,1,9.16,9.16,0,0,1-2.85.41,7.76,7.76,0,0,1-5.74-2.06,7.59,7.59,0,0,1-2-5.6,9,9,0,0,1,.51-3.08A6.54,6.54,0,0,1,84,120.07a6.33,6.33,0,0,1,2.38-1.56,8.61,8.61,0,0,1,3.15-.55,7.57,7.57,0,0,1,3.85.93,6.21,6.21,0,0,1,3.2,5.4c0,.94-.27,1.55-.82,1.83A5.27,5.27,0,0,1,93.41,126.54Zm-7.49-2.13h6.94a4.52,4.52,0,0,0-1.06-2.88,3.19,3.19,0,0,0-2.42-1,3.11,3.11,0,0,0-2.35,1A4.81,4.81,0,0,0,85.92,124.41Z" fill="#026666"/><path d="M110.57,128.34a4.49,4.49,0,0,1-.77,2.66,4.66,4.66,0,0,1-2.28,1.68,10.4,10.4,0,0,1-3.67.57,9.14,9.14,0,0,1-3.53-.62,5.1,5.1,0,0,1-2.18-1.55,3.06,3.06,0,0,1-.7-1.86,1.44,1.44,0,0,1,.45-1.06,1.58,1.58,0,0,1,1.14-.44,1.33,1.33,0,0,1,.92.29,3.07,3.07,0,0,1,.62.81,4.1,4.1,0,0,0,1.41,1.5,4.33,4.33,0,0,0,2.24.49,3.23,3.23,0,0,0,1.88-.5,1.38,1.38,0,0,0,.74-1.14,1.56,1.56,0,0,0-.76-1.45,9.54,9.54,0,0,0-2.52-.86,21.47,21.47,0,0,1-3.22-1,5.4,5.4,0,0,1-2-1.4,3.19,3.19,0,0,1-.74-2.13,3.7,3.7,0,0,1,.69-2.13,4.64,4.64,0,0,1,2-1.6,7.94,7.94,0,0,1,3.24-.6,10.9,10.9,0,0,1,2.67.3,7.29,7.29,0,0,1,2,.81,4.15,4.15,0,0,1,1.21,1.13,2.22,2.22,0,0,1,.41,1.21,1.41,1.41,0,0,1-.44,1.06,1.82,1.82,0,0,1-1.26.41,1.54,1.54,0,0,1-1-.33,6.56,6.56,0,0,1-.95-1,3.56,3.56,0,0,0-1-.88,3.31,3.31,0,0,0-1.6-.33,3.2,3.2,0,0,0-1.73.44,1.24,1.24,0,0,0-.69,1.07,1.15,1.15,0,0,0,.51,1,4.2,4.2,0,0,0,1.36.63c.57.16,1.36.37,2.36.6a13.14,13.14,0,0,1,2.91,1,4.78,4.78,0,0,1,1.71,1.4A3,3,0,0,1,110.57,128.34Z" fill="#026666"/><path d="M126.6,125.62a8.79,8.79,0,0,1-.53,3.09,6.69,6.69,0,0,1-4,4,9.24,9.24,0,0,1-6.28,0,6.92,6.92,0,0,1-2.41-1.58,6.77,6.77,0,0,1-1.54-2.41,8.75,8.75,0,0,1-.53-3.09,8.88,8.88,0,0,1,.53-3.12,6.61,6.61,0,0,1,4-4,9.32,9.32,0,0,1,6.28,0,6.84,6.84,0,0,1,2.43,1.57,6.91,6.91,0,0,1,1.54,2.42A8.71,8.71,0,0,1,126.6,125.62Zm-3.84,0a5.58,5.58,0,0,0-1-3.57,3.38,3.38,0,0,0-2.78-1.28,3.48,3.48,0,0,0-2,.57,3.64,3.64,0,0,0-1.32,1.68,7.42,7.42,0,0,0,0,5.17,3.66,3.66,0,0,0,1.31,1.68,3.64,3.64,0,0,0,4.77-.7A5.56,5.56,0,0,0,122.76,125.62Z" fill="#026666"/><path d="M131.87,127.83V131a2.36,2.36,0,0,1-.55,1.71,1.84,1.84,0,0,1-1.39.57,1.76,1.76,0,0,1-1.36-.58A2.44,2.44,0,0,1,128,131V120.52c0-1.69.62-2.53,1.86-2.53a1.58,1.58,0,0,1,1.38.59,3.27,3.27,0,0,1,.46,1.75,6.79,6.79,0,0,1,1.41-1.75,3,3,0,0,1,1.93-.59,5,5,0,0,1,2.34.59,1.78,1.78,0,0,1,1.14,1.57,1.46,1.46,0,0,1-.48,1.13,1.52,1.52,0,0,1-1.05.45,5.56,5.56,0,0,1-1-.25,4.77,4.77,0,0,0-1.42-.26,2.14,2.14,0,0,0-1.37.43,2.71,2.71,0,0,0-.83,1.29,8.86,8.86,0,0,0-.41,2C131.91,125.75,131.87,126.71,131.87,127.83Z" fill="#026666"/><path d="M149.08,126.54h-7.5a4.91,4.91,0,0,0,.53,2.25,3.42,3.42,0,0,0,1.36,1.47,3.66,3.66,0,0,0,1.87.5,4.53,4.53,0,0,0,1.26-.16,4,4,0,0,0,1.1-.49,9.55,9.55,0,0,0,1-.72l1.17-1a1.28,1.28,0,0,1,.84-.25,1.4,1.4,0,0,1,.95.32,1.1,1.1,0,0,1,.37.89,2.42,2.42,0,0,1-.41,1.19,4.67,4.67,0,0,1-1.23,1.31,7.21,7.21,0,0,1-2.06,1,9.2,9.2,0,0,1-2.85.41,7.74,7.74,0,0,1-5.74-2.06,7.59,7.59,0,0,1-2.05-5.6,9.25,9.25,0,0,1,.5-3.08,6.69,6.69,0,0,1,1.48-2.44,6.33,6.33,0,0,1,2.38-1.56,8.57,8.57,0,0,1,3.15-.55,7.57,7.57,0,0,1,3.85.93,6.26,6.26,0,0,1,3.2,5.4c0,.94-.27,1.55-.83,1.83A5.2,5.2,0,0,1,149.08,126.54Zm-7.5-2.13h6.95a4.52,4.52,0,0,0-1.06-2.88,3.19,3.19,0,0,0-2.42-1,3.1,3.1,0,0,0-2.35,1A4.81,4.81,0,0,0,141.58,124.41Z" fill="#026666"/><path d="M166.24,128.34a4.56,4.56,0,0,1-.77,2.66,4.75,4.75,0,0,1-2.28,1.68,10.44,10.44,0,0,1-3.67.57,9.22,9.22,0,0,1-3.54-.62,5.13,5.13,0,0,1-2.17-1.55,3.06,3.06,0,0,1-.7-1.86,1.44,1.44,0,0,1,.45-1.06,1.57,1.57,0,0,1,1.13-.44,1.36,1.36,0,0,1,.93.29,3.29,3.29,0,0,1,.62.81,4.1,4.1,0,0,0,1.41,1.5,4.3,4.3,0,0,0,2.24.49,3.23,3.23,0,0,0,1.88-.5,1.4,1.4,0,0,0,.74-1.14,1.57,1.57,0,0,0-.77-1.45,9.58,9.58,0,0,0-2.51-.86,21.1,21.1,0,0,1-3.22-1,5.4,5.4,0,0,1-2-1.4,3.14,3.14,0,0,1-.74-2.13,3.76,3.76,0,0,1,.68-2.13,4.74,4.74,0,0,1,2-1.6,7.88,7.88,0,0,1,3.24-.6,10.9,10.9,0,0,1,2.67.3,7.29,7.29,0,0,1,2,.81,4,4,0,0,1,1.2,1.13,2.16,2.16,0,0,1,.42,1.21,1.41,1.41,0,0,1-.44,1.06,1.82,1.82,0,0,1-1.26.41,1.54,1.54,0,0,1-1-.33,6.1,6.1,0,0,1-1-1,3.47,3.47,0,0,0-1-.88,3.24,3.24,0,0,0-1.59-.33,3.17,3.17,0,0,0-1.73.44,1.24,1.24,0,0,0-.69,1.07,1.15,1.15,0,0,0,.51,1,4.1,4.1,0,0,0,1.36.63c.57.16,1.35.37,2.36.6a13.52,13.52,0,0,1,2.91,1,4.78,4.78,0,0,1,1.71,1.4A3,3,0,0,1,166.24,128.34Z" fill="#026666"/></svg>